<svg xmlns="http://www.w3.org/2000/svg" width="122" height="24.614" viewBox="0 0 122 24.614">
  <g id="logo" transform="translate(-3777 2585)">
    <g id="Group_5" data-name="Group 5" transform="translate(3351.718 -2724.481)">
      <g id="Group_3" data-name="Group 3" transform="translate(468.273 141.472)">
        <path id="Path_776" data-name="Path 776" d="M501.809,164A11.009,11.009,0,1,1,490.8,152.989,11.009,11.009,0,0,1,501.809,164Z" transform="translate(-479.791 -152.989)" fill="#c5c2c9" fill-rule="evenodd"/>
        <path id="Path_777" data-name="Path 777" d="M501.809,164A11.009,11.009,0,1,1,490.8,152.989,11.009,11.009,0,0,1,501.809,164Z" transform="translate(-479.791 -152.989)" fill="#dd321a" fill-rule="evenodd"/>
        <path id="Path_778" data-name="Path 778" d="M519.4,193.807a11.011,11.011,0,0,1-16.223,13.909A11.01,11.01,0,1,0,519.4,193.807Z" transform="translate(-502.014 -191.77)" fill="#cb151d" fill-rule="evenodd"/>
        <path id="Path_779" data-name="Path 779" d="M746.976,285.433a3.327,3.327,0,1,1-3.328-3.327A3.327,3.327,0,0,1,746.976,285.433Z" transform="translate(-727.321 -275.663)" fill="#dd321a" fill-rule="evenodd"/>
        <path id="Path_780" data-name="Path 780" d="M758.471,297.566a2.69,2.69,0,1,1-2.69-2.69A2.69,2.69,0,0,1,758.471,297.566Z" transform="translate(-739.454 -287.796)" fill="#e84a3b" fill-rule="evenodd"/>
        <path id="Path_781" data-name="Path 781" d="M753.868,297.848a2.69,2.69,0,0,1,3.211-2.639,2.69,2.69,0,1,0-1.82,5A2.689,2.689,0,0,1,753.868,297.848Z" transform="translate(-739.453 -287.795)" fill="#cb151d" fill-rule="evenodd"/>
        <path id="Path_782" data-name="Path 782" d="M592.278,375.764a2.142,2.142,0,1,1-2.142-2.142A2.142,2.142,0,0,1,592.278,375.764Z" transform="translate(-582.596 -362.613)" fill="#e84a3b" fill-rule="evenodd"/>
        <path id="Path_783" data-name="Path 783" d="M588.374,376.189a2.14,2.14,0,0,1,3.538-1.622,2.141,2.141,0,1,0-3.172,2.819A2.132,2.132,0,0,1,588.374,376.189Z" transform="translate(-582.595 -362.614)" fill="#cb151d" fill-rule="evenodd"/>
        <path id="Path_784" data-name="Path 784" d="M483.276,274.218a3,3,0,0,0-2.292-.781,10.961,10.961,0,0,0-1.193,4.989c0,.221.007.44.02.657a3.009,3.009,0,0,0,3.465-4.865Z" transform="translate(-479.791 -267.416)" fill="#e84a3b" fill-rule="evenodd"/>
        <path id="Path_785" data-name="Path 785" d="M493.188,275.042a3.011,3.011,0,0,0-2.925-1.605,10.936,10.936,0,0,0-.705,1.74A3.008,3.008,0,0,1,493.188,275.042Z" transform="translate(-489.07 -267.416)" fill="#cb151d" fill-rule="evenodd"/>
        <path id="Path_786" data-name="Path 786" d="M593.037,196.328a2.522,2.522,0,1,1-2.521-2.522A2.522,2.522,0,0,1,593.037,196.328Z" transform="translate(-582.595 -191.769)" fill="#e84a3b" fill-rule="evenodd"/>
        <path id="Path_787" data-name="Path 787" d="M588.729,197.107a2.521,2.521,0,0,1,3.946-2.08,2.522,2.522,0,1,0-3.584,3.382A2.509,2.509,0,0,1,588.729,197.107Z" transform="translate(-582.595 -191.77)" fill="#cb151d" fill-rule="evenodd"/>
        <path id="Path_788" data-name="Path 788" d="M713.887,452a1.437,1.437,0,1,1-1.437-1.437A1.437,1.437,0,0,1,713.887,452Z" transform="translate(-699.477 -435.719)" fill="#dd321a" fill-rule="evenodd"/>
        <path id="Path_789" data-name="Path 789" d="M721.9,460.455a.993.993,0,1,1-.993-.993A.993.993,0,0,1,721.9,460.455Z" transform="translate(-707.929 -444.17)" fill="#e84a3b" fill-rule="evenodd"/>
        <path id="Path_790" data-name="Path 790" d="M720.181,460.877a.991.991,0,0,1,1.665-.729.992.992,0,1,0-1.617,1.034A.992.992,0,0,1,720.181,460.877Z" transform="translate(-707.928 -444.169)" fill="#cb151d" fill-rule="evenodd"/>
        <path id="Path_791" data-name="Path 791" d="M621,501.326a2.076,2.076,0,1,1-2.076-2.076A2.076,2.076,0,0,1,621,501.326Z" transform="translate(-610.005 -481.973)" fill="#dd321a" fill-rule="evenodd"/>
        <path id="Path_792" data-name="Path 792" d="M632.565,513.537a1.434,1.434,0,1,1-1.434-1.434A1.434,1.434,0,0,1,632.565,513.537Z" transform="translate(-622.217 -494.184)" fill="#e84a3b" fill-rule="evenodd"/>
        <path id="Path_793" data-name="Path 793" d="M630.089,514.149a1.433,1.433,0,0,1,2.406-1.053,1.434,1.434,0,1,0-2.336,1.494A1.433,1.433,0,0,1,630.089,514.149Z" transform="translate(-622.216 -494.184)" fill="#cb151d" fill-rule="evenodd"/>
      </g>
      <path id="Path_794" data-name="Path 794" d="M490.9,152.481a11.614,11.614,0,1,1-3.4-8.212,11.577,11.577,0,0,1,3.4,8.212Zm-4.257,7.357a10.4,10.4,0,1,0-7.357,3.047A10.371,10.371,0,0,0,486.639,159.838Z" fill="#171924" fill-rule="evenodd"/>
    </g>
    <text id="Mars_nanas" data-name="Mars nanas" transform="translate(3777 -2565)" fill="#ebe1e0" font-size="20" font-family="HWTMardell, HWT Mardell" letter-spacing="0.02em"><tspan x="0" y="0">Mars nanas</tspan></text>
  </g>
</svg>
